<svg width="240" height="320" viewBox="0 0 240 320" fill="none" xmlns="http://www.w3.org/2000/svg">
<path d="M17.2 267.9V294.7V315.3C17.2 317.9 19.3 320 21.9 320H234.9C237.5 320 239.6 317.9 239.6 315.3V267.9V52.5V5.09999C239.6 2.49999 237.5 0.399994 234.9 0.399994H21.9C19.3 0.399994 17.2 2.49999 17.2 5.09999V18C7.29995 19.6 0 26.5 0 34.9C0 39.9 2.60005 44.4 6.80005 47.5C2.60005 50.6 0 55.1 0 60.1C0 65.1 2.60005 69.6 6.80005 72.7C2.60005 75.8 0 80.3 0 85.3C0 90.3 2.60005 94.8 6.80005 97.9C2.60005 101 0 105.5 0 110.5C0 115.5 2.60005 120 6.80005 123.1C2.60005 126.2 0 130.7 0 135.7C0 140.7 2.60005 145.2 6.80005 148.3C2.60005 151.4 0 155.9 0 160.9C0 165.9 2.60005 170.4 6.80005 173.5C2.60005 176.6 0 181.1 0 186.1C0 191.1 2.60005 195.6 6.80005 198.7C2.60005 201.8 0 206.3 0 211.3C0 216.3 2.60005 220.8 6.80005 223.9C2.60005 227 0 231.5 0 236.5C0 244.9 7.19995 251.7 17.2 253.4V267.9ZM26.5 18.1V9.89999H230.2V57.3V263.3H220.5H26.4V229.7C31 230.9 34.3 233.8 34.3 237.1C34.3 239.7 36.4 241.8 39 241.8C41.6 241.8 43.7 239.7 43.7 237.1C43.7 228.7 36.5 221.9 26.5 220.2V204.5C31.1 205.7 34.4 208.6 34.4 211.9C34.4 214.5 36.5 216.6 39.1 216.6C41.7 216.6 43.8 214.5 43.8 211.9C43.8 203.5 36.6 196.7 26.6 195V179.3C31.2 180.5 34.5 183.4 34.5 186.7C34.5 189.3 36.6 191.4 39.2 191.4C41.8 191.4 43.9 189.3 43.9 186.7C43.9 178.3 36.7 171.5 26.7 169.8V154.1C31.3 155.3 34.6 158.2 34.6 161.5C34.6 164.1 36.7 166.2 39.3 166.2C41.9 166.2 44 164.1 44 161.5C44 153.1 36.8 146.3 26.8 144.6V128.9C31.4 130.1 34.7 133 34.7 136.3C34.7 138.9 36.8 141 39.4 141C42 141 44.1 138.9 44.1 136.3C44.1 127.9 36.9 121.1 26.9 119.4V103.7C31.5 104.9 34.8 107.8 34.8 111.1C34.8 113.7 36.9 115.8 39.5 115.8C42.1 115.8 44.2 113.7 44.2 111.1C44.2 102.7 37 95.9 27 94.2V78.5C31.6 79.7 34.9 82.6 34.9 85.9C34.9 88.5 37 90.6 39.6 90.6C42.2 90.6 44.3 88.5 44.3 85.9C44.3 77.5 37.1 70.7 27.1 69V57.6V53.2C31.7 54.4 35 57.3 35 60.6C35 63.2 37.1 65.3 39.7 65.3C42.3 65.3 44.4 63.2 44.4 60.6C44.4 52.2 37.2 45.4 27.2 43.7V28C31.8 29.2 35.1 32.1 35.1 35.4C35.1 38 37.2 40.1 39.8 40.1C42.4 40.1 44.5 38 44.5 35.4C43.7 26.5 36.4 19.7 26.5 18.1ZM26.5 272.5H215.9V274.1H176C174.4 274.1 173.1 275.4 173.1 277C173.1 278.6 174.4 279.9 176 279.9H215.9V281.8H140.6C139 281.8 137.7 283.1 137.7 284.7C137.7 286.3 139 287.6 140.6 287.6H215.9V289.9H26.5V272.5ZM26.5 299.3H220.6C223.2 299.3 225.3 297.2 225.3 294.6V272.5H230.3V310.6H26.6V299.3H26.5ZM17.2 67.6C12.6 66.4 9.30005 63.5 9.30005 60.2C9.30005 56.9 12.6 54 17.2 52.8V67.6ZM17.2 92.8C12.6 91.6 9.30005 88.7 9.30005 85.4C9.30005 82.1 12.6 79.2 17.2 78V92.8ZM17.2 118.1C12.6 116.9 9.30005 114 9.30005 110.7C9.30005 107.4 12.6 104.5 17.2 103.3V118.1ZM17.2 143.3C12.6 142.1 9.30005 139.2 9.30005 135.9C9.30005 132.6 12.6 129.7 17.2 128.5V143.3ZM17.2 168.6C12.6 167.4 9.30005 164.5 9.30005 161.2C9.30005 157.9 12.6 155 17.2 153.8V168.6ZM17.2 193.8C12.6 192.6 9.30005 189.7 9.30005 186.4C9.30005 183.1 12.6 180.2 17.2 179V193.8ZM17.2 219.1C12.6 217.9 9.30005 215 9.30005 211.7C9.30005 208.4 12.6 205.5 17.2 204.3V219.1ZM17.2 27.6V42.3C12.6 41.1 9.30005 38.2 9.30005 34.9C9.30005 31.7 12.6 28.8 17.2 27.6ZM9.30005 236.9C9.30005 233.6 12.6 230.7 17.2 229.5V244.2C12.6 243.1 9.30005 240.2 9.30005 236.9Z" fill="#37474F"/>
<path d="M194.1 56.6H78.5V106.1H194.1V56.6Z" fill="#C2B59B"/>
<path d="M69.2 51.9V110.7C69.2 113.3 71.3 115.4 73.9 115.4H198.8C201.4 115.4 203.5 113.3 203.5 110.7V51.9C203.5 49.3 201.4 47.2 198.8 47.2H73.9C71.3 47.2 69.2 49.3 69.2 51.9ZM194.1 106H78.5V56.5H194.1V106Z" fill="#37474F"/>
<path d="M230.2 310.6V272.5H225.2V294.6C225.2 297.2 223.1 299.3 220.5 299.3H47.4V310.6H230.2Z" fill="#726658"/>
<path d="M47.4 299.3H26.5V310.6H47.4V299.3Z" fill="#665B4E"/>
<path d="M26.5 9.79999V18C36.4 19.6 43.7 26.5 43.7 34.9C43.7 37.5 41.6 39.6 39 39.6C36.4 39.6 34.3 37.5 34.3 34.9C34.3 31.6 31 28.7 26.4 27.5V43.2C36.3 44.8 43.6 51.7 43.6 60.1C43.6 62.7 41.5 64.8 38.9 64.8C36.3 64.8 34.2 62.7 34.2 60.1C34.2 56.8 30.9 53.9 26.3 52.7V57.1V68.5C36.2 70.1 43.5 77 43.5 85.4C43.5 88 41.4 90.1 38.8 90.1C36.2 90.1 34.1 88 34.1 85.4C34.1 82.1 30.8 79.2 26.2 78V93.7C36.1 95.3 43.4 102.2 43.4 110.6C43.4 113.2 41.3 115.3 38.7 115.3C36.1 115.3 34 113.2 34 110.6C34 107.3 30.7 104.4 26.1 103.2V119C36 120.6 43.3 127.5 43.3 135.9C43.3 138.5 41.2 140.6 38.6 140.6C36 140.6 33.9 138.5 33.9 135.9C33.9 132.6 30.6 129.7 26 128.5V144.2C35.9 145.8 43.2 152.7 43.2 161.1C43.2 163.7 41.1 165.8 38.5 165.8C35.9 165.8 33.8 163.7 33.8 161.1C33.8 157.8 30.5 154.9 25.9 153.7V169.4C35.8 171 43.1 177.9 43.1 186.3C43.1 188.9 41 191 38.4 191C35.8 191 33.7 188.9 33.7 186.3C33.7 183 30.4 180.1 25.8 178.9V194.6C35.7 196.2 43 203.1 43 211.5C43 214.1 40.9 216.2 38.3 216.2C35.7 216.2 33.6 214.1 33.6 211.5C33.6 208.2 30.3 205.3 25.7 204.1V220C35.6 221.6 42.9 228.5 42.9 236.9C42.9 239.5 40.8 241.6 38.2 241.6C35.6 241.6 33.5 239.5 33.5 236.9C33.5 233.6 30.2 230.7 25.6 229.5V263.1H46.5V9.79999H26.5Z" fill="#8E776C"/>
<path d="M47.4 9.79999V263.2H220.5H230.2V57.2V9.79999H47.4V9.79999ZM203.4 110.7C203.4 113.3 201.3 115.4 198.7 115.4H73.8C71.2 115.4 69.1 113.3 69.1 110.7V51.9C69.1 49.3 71.2 47.2 73.8 47.2H198.7C201.3 47.2 203.4 49.3 203.4 51.9V110.7Z" fill="#9B8579"/>
<path d="M26.5 280V290H215.9V287.7H140.6C139 287.7 137.7 286.4 137.7 284.8C137.7 283.2 139 281.9 140.6 281.9H215.9V280H176H26.5Z" fill="#E1E2E2"/>
<path d="M173.1 277.1C173.1 275.5 174.4 274.2 176 274.2H215.9V272.6H26.5V280.1H176C174.4 280 173.1 278.7 173.1 277.1Z" fill="#BDBDBD"/>
</svg>
